<?xml version="1.0" encoding="utf-8"?>
<!-- Generator: Adobe Illustrator 24.0.1, SVG Export Plug-In . SVG Version: 6.00 Build 0)  -->
<svg version="1.1" id="Layer_1" xmlns="http://www.w3.org/2000/svg" xmlns:xlink="http://www.w3.org/1999/xlink" x="0px" y="0px"
	 viewBox="0 0 152 304.9" style="enable-background:new 0 0 152 304.9;" xml:space="preserve">
<g>
	<polygon points="120,230.2 120,237.7 97.7,250.5 97.7,243 	"/>
</g>
<g>
	<polygon points="119.9,92.8 119.9,100.3 97.6,113.1 97.6,105.6 	"/>
</g>
<g>
	<path d="M75.1,91.9l67.2-38.6l0.1,60.7l-67.2,38.6L75.1,91.9z M119.9,100.3v-7.5l-22.3,12.8v7.5L119.9,100.3"/>
</g>
<g>
	<path d="M75.2,229.3l67.2-38.6l0.1,60.7L75.3,290L75.2,229.3z M120,237.7v-7.5L97.7,243v7.5L120,237.7"/>
</g>
<g>
	<polygon points="119.9,161.5 119.9,169 97.7,181.8 97.7,174.3 	"/>
</g>
<g>
	<path d="M75.2,160.6l67.2-38.6l0.1,60.7l-67.2,38.6L75.2,160.6z M119.9,169v-7.6l-22.3,12.8v7.6L119.9,169"/>
</g>
<g>
	<polygon points="67.9,87.2 2.2,48.9 83.8,1.9 149.5,40.3 	"/>
</g>
<g>
	<polygon points="68.1,303 2.4,264.7 2.2,48.9 67.9,87.2 	"/>
</g>
<g>
	<path d="M149.5,40.3L67.9,87.2L68.1,303l81.7-46.9L149.5,40.3z M75.1,91.9l67.2-38.6l0.1,60.7l-67.2,38.6L75.1,91.9 M75.2,160.6
		l67.2-38.6l0.1,60.7l-67.2,38.6L75.2,160.6 M75.3,290l-0.1-60.7l67.2-38.6l0.1,60.7L75.3,290"/>
</g>
</svg>
