<?xml version="1.0" encoding="utf-8"?>
<!-- Generator: Adobe Illustrator 24.0.1, SVG Export Plug-In . SVG Version: 6.00 Build 0)  -->
<svg version="1.1" id="Layer_1" xmlns="http://www.w3.org/2000/svg" xmlns:xlink="http://www.w3.org/1999/xlink" x="0px" y="0px"
	 viewBox="0 0 245.4 245.4" style="enable-background:new 0 0 245.4 245.4;" xml:space="preserve">
<g>
	<rect width="245.4" height="245.4"/>
</g>
<path d="M207.3,136.4V109l-24.3-1.8c-1.4-5.7-3.7-11.1-6.7-16.3l15.9-18.4l-19.3-19.3l-18.4,15.9c-5.1-3.1-10.6-5.3-16.3-6.7
	l-1.8-24.3H109l-1.8,24.3c-5.7,1.4-11.1,3.7-16.3,6.7L72.5,53.2L53.2,72.5L69.1,91c-3.1,5.1-5.3,10.6-6.7,16.3L38.1,109v27.3
	l24.3,1.8c1.4,5.7,3.7,11.1,6.7,16.3l-15.9,18.4l19.3,19.3L91,176.3c5.1,3.1,10.6,5.3,16.3,6.7l1.8,24.3h27.3l1.8-24.3
	c5.7-1.4,11.1-3.7,16.3-6.7l18.4,15.9l19.3-19.3l-15.9-18.4c3.1-5.1,5.3-10.6,6.7-16.3L207.3,136.4z"/>
<circle cx="122.7" cy="122.7" r="27.8"/>
</svg>
